<svg xmlns="http://www.w3.org/2000/svg" xmlns:xlink="http://www.w3.org/1999/xlink" version="1.1" width="256" height="256" viewBox="0 0 256 256" xml:space="preserve">
<desc>Created with Fabric.js 1.7.22</desc>
<defs>
</defs>
<g transform="translate(128 128) scale(0.72 0.72)" style="">
	<g style="stroke: none; stroke-width: 0; stroke-dasharray: none; stroke-linecap: butt; stroke-linejoin: miter; stroke-miterlimit: 10; fill: none; fill-rule: nonzero; opacity: 1;" transform="translate(-175.05 -175.05000000000004) scale(3.89 3.89)" >
	<path d="M 89 31.006 c -0.553 0 -1 -0.448 -1 -1 V 15.397 c 0 -2.747 -2.235 -4.982 -4.982 -4.982 H 6.982 C 4.235 10.415 2 12.65 2 15.397 v 13.609 h 76.925 c 0.553 0 1 0.448 1 1 s -0.447 1 -1 1 H 1 c -0.552 0 -1 -0.448 -1 -1 V 15.397 c 0 -3.85 3.132 -6.982 6.982 -6.982 h 76.035 c 3.851 0 6.982 3.132 6.982 6.982 v 14.609 C 90 30.559 89.553 31.006 89 31.006 z" style="stroke: none; stroke-width: 1; stroke-dasharray: none; stroke-linecap: butt; stroke-linejoin: miter; stroke-miterlimit: 10; fill: rgb(0,0,0); fill-rule: nonzero; opacity: 1;" transform=" matrix(1 0 0 1 0 0) " stroke-linecap="round" />
	<path d="M 60.832 24.438 H 11.168 c -2.607 0 -4.728 -2.121 -4.728 -4.728 s 2.121 -4.728 4.728 -4.728 h 49.664 c 2.606 0 4.728 2.121 4.728 4.728 S 63.438 24.438 60.832 24.438 z M 11.168 16.982 c -1.504 0 -2.728 1.224 -2.728 2.728 c 0 1.504 1.224 2.728 2.728 2.728 h 49.664 c 1.504 0 2.728 -1.224 2.728 -2.728 c 0 -1.504 -1.224 -2.728 -2.728 -2.728 H 11.168 z" style="stroke: none; stroke-width: 1; stroke-dasharray: none; stroke-linecap: butt; stroke-linejoin: miter; stroke-miterlimit: 10; fill: rgb(0,0,0); fill-rule: nonzero; opacity: 1;" transform=" matrix(1 0 0 1 0 0) " stroke-linecap="round" />
	<path d="M 78.832 24.438 h -3.664 c -2.606 0 -4.728 -2.121 -4.728 -4.728 s 2.121 -4.728 4.728 -4.728 h 3.664 c 2.606 0 4.728 2.121 4.728 4.728 S 81.438 24.438 78.832 24.438 z M 75.168 16.982 c -1.504 0 -2.728 1.224 -2.728 2.728 c 0 1.504 1.224 2.728 2.728 2.728 h 3.664 c 1.504 0 2.728 -1.224 2.728 -2.728 c 0 -1.504 -1.224 -2.728 -2.728 -2.728 H 75.168 z" style="stroke: none; stroke-width: 1; stroke-dasharray: none; stroke-linecap: butt; stroke-linejoin: miter; stroke-miterlimit: 10; fill: rgb(0,0,0); fill-rule: nonzero; opacity: 1;" transform=" matrix(1 0 0 1 0 0) " stroke-linecap="round" />
	<path d="M 58.675 81.586 h -27.35 c -0.552 0 -1 -0.447 -1 -1 v -23.5 c 0 -0.553 0.448 -1 1 -1 s 1 0.447 1 1 v 22.5 h 25.35 v -22.5 c 0 -0.553 0.447 -1 1 -1 s 1 0.447 1 1 v 23.5 C 59.675 81.139 59.228 81.586 58.675 81.586 z" style="stroke: none; stroke-width: 1; stroke-dasharray: none; stroke-linecap: butt; stroke-linejoin: miter; stroke-miterlimit: 10; fill: rgb(0,0,0); fill-rule: nonzero; opacity: 1;" transform=" matrix(1 0 0 1 0 0) " stroke-linecap="round" />
	<path d="M 24.692 56.699 c -0.303 0 -0.603 -0.138 -0.799 -0.398 c -0.333 -0.44 -0.245 -1.067 0.196 -1.4 l 20.309 -15.308 c 0.356 -0.269 0.848 -0.269 1.204 0 L 65.911 54.9 c 0.441 0.333 0.529 0.96 0.197 1.4 c -0.333 0.44 -0.959 0.53 -1.4 0.197 L 45 41.643 L 25.293 56.498 C 25.113 56.634 24.901 56.699 24.692 56.699 z" style="stroke: none; stroke-width: 1; stroke-dasharray: none; stroke-linecap: butt; stroke-linejoin: miter; stroke-miterlimit: 10; fill: rgb(0,0,0); fill-rule: nonzero; opacity: 1;" transform=" matrix(1 0 0 1 0 0) " stroke-linecap="round" />
	<path d="M 83.018 75.227 H 68.064 c -0.553 0 -1 -0.447 -1 -1 s 0.447 -1 1 -1 h 14.953 c 2.747 0 4.982 -2.234 4.982 -4.981 V 15.396 c 0 -2.747 -2.235 -4.982 -4.982 -4.982 H 6.982 C 4.235 10.415 2 12.649 2 15.396 v 52.849 c 0 2.747 2.235 4.981 4.982 4.981 h 14.953 c 0.552 0 1 0.447 1 1 s -0.448 1 -1 1 H 6.982 C 3.132 75.227 0 72.095 0 68.245 V 15.396 c 0 -3.85 3.132 -6.982 6.982 -6.982 h 76.035 c 3.851 0 6.982 3.132 6.982 6.982 v 52.849 C 90 72.095 86.868 75.227 83.018 75.227 z" style="stroke: none; stroke-width: 1; stroke-dasharray: none; stroke-linecap: butt; stroke-linejoin: miter; stroke-miterlimit: 10; fill: rgb(0,0,0); fill-rule: nonzero; opacity: 1;" transform=" matrix(1 0 0 1 0 0) " stroke-linecap="round" />
	<path d="M 50.863 81.586 c -0.553 0 -1 -0.447 -1 -1 V 68.27 h -9.726 v 12.316 c 0 0.553 -0.448 1 -1 1 s -1 -0.447 -1 -1 V 67.27 c 0 -0.553 0.448 -1 1 -1 h 11.726 c 0.553 0 1 0.447 1 1 v 13.316 C 51.863 81.139 51.416 81.586 50.863 81.586 z" style="stroke: none; stroke-width: 1; stroke-dasharray: none; stroke-linecap: butt; stroke-linejoin: miter; stroke-miterlimit: 10; fill: rgb(0,0,0); fill-rule: nonzero; opacity: 1;" transform=" matrix(1 0 0 1 0 0) " stroke-linecap="round" />
</g>
</g>
</svg>