<svg xmlns="http://www.w3.org/2000/svg" xmlns:xlink="http://www.w3.org/1999/xlink" version="1.1" width="256" height="256" viewBox="0 0 256 256" xml:space="preserve">
<desc>Created with Fabric.js 1.7.22</desc>
<defs>
</defs>
<g transform="translate(128 128) scale(0.72 0.72)" style="">
	<g style="stroke: none; stroke-width: 0; stroke-dasharray: none; stroke-linecap: butt; stroke-linejoin: miter; stroke-miterlimit: 10; fill: none; fill-rule: nonzero; opacity: 1;" transform="translate(-175.05 -175.05000000000004) scale(3.89 3.89)" >
	<path d="M 54.715 50.801 c -2.414 0 -4.379 1.965 -4.379 4.379 c 0 2.415 1.965 4.38 4.379 4.38 c 2.415 0 4.38 -1.965 4.38 -4.38 C 59.095 52.766 57.13 50.801 54.715 50.801 z" style="stroke: none; stroke-width: 1; stroke-dasharray: none; stroke-linecap: butt; stroke-linejoin: miter; stroke-miterlimit: 10; fill: rgb(0,0,0); fill-rule: nonzero; opacity: 1;" transform=" matrix(1 0 0 1 0 0) " stroke-linecap="round" />
	<path d="M 34.355 39.199 c 2.415 0 4.379 -1.964 4.379 -4.379 c 0 -2.415 -1.964 -4.379 -4.379 -4.379 c -2.415 0 -4.379 1.964 -4.379 4.379 C 29.976 37.235 31.94 39.199 34.355 39.199 z" style="stroke: none; stroke-width: 1; stroke-dasharray: none; stroke-linecap: butt; stroke-linejoin: miter; stroke-miterlimit: 10; fill: rgb(0,0,0); fill-rule: nonzero; opacity: 1;" transform=" matrix(1 0 0 1 0 0) " stroke-linecap="round" />
	<path d="M 90 45 L 79.238 33.875 l 2.168 -15.326 L 66.16 15.875 L 58.906 2.202 L 45 9 L 31.094 2.202 L 23.84 15.875 L 8.594 18.55 l 2.168 15.326 L 0 45 l 10.762 11.125 L 8.594 71.45 l 15.245 2.674 l 7.255 13.673 L 45 81 l 13.906 6.798 l 7.255 -13.673 l 15.245 -2.674 l -2.168 -15.326 L 90 45 z M 34.355 26.441 c 4.62 0 8.379 3.759 8.379 8.379 c 0 4.621 -3.759 8.379 -8.379 8.379 c -4.621 0 -8.379 -3.759 -8.379 -8.379 C 25.976 30.2 29.735 26.441 34.355 26.441 z M 31.31 62.91 l -2.95 -2.701 L 58.69 27.09 l 2.949 2.701 L 31.31 62.91 z M 54.715 63.56 c -4.62 0 -8.379 -3.759 -8.379 -8.38 c 0 -4.62 3.759 -8.379 8.379 -8.379 c 4.621 0 8.38 3.759 8.38 8.379 C 63.095 59.801 59.336 63.56 54.715 63.56 z" style="stroke: none; stroke-width: 1; stroke-dasharray: none; stroke-linecap: butt; stroke-linejoin: miter; stroke-miterlimit: 10; fill: rgb(0,0,0); fill-rule: nonzero; opacity: 1;" transform=" matrix(1 0 0 1 0 0) " stroke-linecap="round" />
</g>
</g>
</svg>