<svg xmlns="http://www.w3.org/2000/svg" xmlns:xlink="http://www.w3.org/1999/xlink" version="1.1" width="256" height="256" viewBox="0 0 256 256" xml:space="preserve">
<desc>Created with Fabric.js 1.7.22</desc>
<defs>
</defs>
<g transform="translate(128 128) scale(0.72 0.72)" style="">
	<g style="stroke: none; stroke-width: 0; stroke-dasharray: none; stroke-linecap: butt; stroke-linejoin: miter; stroke-miterlimit: 10; fill: none; fill-rule: nonzero; opacity: 1;" transform="translate(-175.05 -175.05000000000004) scale(3.89 3.89)" >
	<path d="M 81.184 80.465 h 0.074 c 4.276 0 7.742 -3.466 7.742 -7.742 v -55.45 c 0 -4.276 -3.466 -7.742 -7.742 -7.742 H 8.742 C 4.466 9.532 1 12.998 1 17.273 v 55.45 c 0 4.276 3.466 7.742 7.742 7.742 H 81.184 z" style="stroke: none; stroke-width: 1; stroke-dasharray: none; stroke-linecap: butt; stroke-linejoin: miter; stroke-miterlimit: 10; fill: rgb(249,249,249); fill-rule: nonzero; opacity: 1;" transform=" matrix(1 0 0 1 0 0) " stroke-linecap="round" />
	<path d="M 1 30.353 v 42.37 c 0 4.276 3.466 7.742 7.742 7.742 h 72.442 h 0.074 c 4.276 0 7.742 -3.466 7.742 -7.742 v -42.37 H 1 z" style="stroke: none; stroke-width: 1; stroke-dasharray: none; stroke-linecap: butt; stroke-linejoin: miter; stroke-miterlimit: 10; fill: rgb(131,177,242); fill-rule: nonzero; opacity: 1;" transform=" matrix(1 0 0 1 0 0) " stroke-linecap="round" />
	<circle cx="12.94" cy="20.94" r="2" style="stroke: none; stroke-width: 1; stroke-dasharray: none; stroke-linecap: butt; stroke-linejoin: miter; stroke-miterlimit: 10; fill: rgb(0,0,0); fill-rule: nonzero; opacity: 1;" transform="  matrix(1 0 0 1 0 0) "/>
	<circle cx="23.29" cy="20.94" r="2" style="stroke: none; stroke-width: 1; stroke-dasharray: none; stroke-linecap: butt; stroke-linejoin: miter; stroke-miterlimit: 10; fill: rgb(0,0,0); fill-rule: nonzero; opacity: 1;" transform="  matrix(1 0 0 1 0 0) "/>
	<circle cx="33.64" cy="20.94" r="2" style="stroke: none; stroke-width: 1; stroke-dasharray: none; stroke-linecap: butt; stroke-linejoin: miter; stroke-miterlimit: 10; fill: rgb(0,0,0); fill-rule: nonzero; opacity: 1;" transform="  matrix(1 0 0 1 0 0) "/>
	<path d="M 79.062 21.938 H 52.107 c -0.553 0 -1 -0.448 -1 -1 s 0.447 -1 1 -1 h 26.954 c 0.553 0 1 0.448 1 1 S 79.614 21.938 79.062 21.938 z" style="stroke: none; stroke-width: 1; stroke-dasharray: none; stroke-linecap: butt; stroke-linejoin: miter; stroke-miterlimit: 10; fill: rgb(0,0,0); fill-rule: nonzero; opacity: 1;" transform=" matrix(1 0 0 1 0 0) " stroke-linecap="round" />
	<path d="M 79.062 31.354 H 1 c -0.552 0 -1 -0.448 -1 -1 s 0.448 -1 1 -1 h 78.062 c 0.553 0 1 0.448 1 1 S 79.614 31.354 79.062 31.354 z" style="stroke: none; stroke-width: 1; stroke-dasharray: none; stroke-linecap: butt; stroke-linejoin: miter; stroke-miterlimit: 10; fill: rgb(0,0,0); fill-rule: nonzero; opacity: 1;" transform=" matrix(1 0 0 1 0 0) " stroke-linecap="round" />
	<polyline points="57.29,80.47 57.29,62.03 63.43,62.03 45,46.59 26.57,62.03 32.71,62.03 32.71,80.47 " style="stroke: none; stroke-width: 1; stroke-dasharray: none; stroke-linecap: butt; stroke-linejoin: miter; stroke-miterlimit: 10; fill: rgb(255,233,105); fill-rule: nonzero; opacity: 1;" transform="  matrix(1 0 0 1 0 0) "/>
	<rect x="40.06" y="67.54" rx="0" ry="0" width="9.88" height="12.93" style="stroke: none; stroke-width: 1; stroke-dasharray: none; stroke-linecap: butt; stroke-linejoin: miter; stroke-miterlimit: 10; fill: rgb(249,249,249); fill-rule: nonzero; opacity: 1;" transform=" matrix(1 0 0 1 0 0) "/>
	<path d="M 57.292 81.465 c -0.553 0 -1 -0.447 -1 -1 V 62.027 c 0 -0.553 0.447 -1 1 -1 h 3.39 L 45 47.898 L 29.319 61.027 h 3.39 c 0.552 0 1 0.447 1 1 v 18.438 c 0 0.553 -0.448 1 -1 1 s -1 -0.447 -1 -1 V 63.027 h -5.142 c -0.42 0 -0.796 -0.264 -0.94 -0.658 c -0.144 -0.396 -0.024 -0.839 0.298 -1.108 l 18.433 -15.433 c 0.372 -0.312 0.912 -0.312 1.284 0 l 18.433 15.433 c 0.323 0.27 0.442 0.713 0.298 1.108 c -0.144 0.395 -0.519 0.658 -0.939 0.658 h -5.142 v 17.438 C 58.292 81.018 57.845 81.465 57.292 81.465 z" style="stroke: none; stroke-width: 1; stroke-dasharray: none; stroke-linecap: butt; stroke-linejoin: miter; stroke-miterlimit: 10; fill: rgb(0,0,0); fill-rule: nonzero; opacity: 1;" transform=" matrix(1 0 0 1 0 0) " stroke-linecap="round" />
	<path d="M 81.259 81.465 H 57.292 c -0.553 0 -1 -0.447 -1 -1 s 0.447 -1 1 -1 h 23.892 c 3.792 0 6.816 -3.024 6.816 -6.741 v -55.45 c 0 -3.717 -3.024 -6.742 -6.741 -6.742 H 8.742 C 5.024 10.532 2 13.556 2 17.273 v 55.45 c 0 3.717 3.024 6.741 6.742 6.741 h 38.271 c 0.553 0 1 0.447 1 1 s -0.447 1 -1 1 H 8.742 C 3.921 81.465 0 77.544 0 72.724 v -55.45 c 0 -4.82 3.921 -8.742 8.742 -8.742 h 72.517 c 4.82 0 8.741 3.921 8.741 8.742 v 55.45 C 90 77.544 86.079 81.465 81.259 81.465 z" style="stroke: none; stroke-width: 1; stroke-dasharray: none; stroke-linecap: butt; stroke-linejoin: miter; stroke-miterlimit: 10; fill: rgb(0,0,0); fill-rule: nonzero; opacity: 1;" transform=" matrix(1 0 0 1 0 0) " stroke-linecap="round" />
	<path d="M 49.938 81.465 h -9.875 c -0.552 0 -1 -0.447 -1 -1 V 67.536 c 0 -0.553 0.448 -1 1 -1 h 9.875 c 0.553 0 1 0.447 1 1 v 12.929 C 50.938 81.018 50.49 81.465 49.938 81.465 z M 41.063 79.465 h 7.875 V 68.536 h -7.875 V 79.465 z" style="stroke: none; stroke-width: 1; stroke-dasharray: none; stroke-linecap: butt; stroke-linejoin: miter; stroke-miterlimit: 10; fill: rgb(0,0,0); fill-rule: nonzero; opacity: 1;" transform=" matrix(1 0 0 1 0 0) " stroke-linecap="round" />
</g>
</g>
</svg>