<svg xmlns="http://www.w3.org/2000/svg" xmlns:xlink="http://www.w3.org/1999/xlink" version="1.1" width="256" height="256" viewBox="0 0 256 256" xml:space="preserve">
<desc>Created with Fabric.js 1.7.22</desc>
<defs>
</defs>
<g transform="translate(128 128) scale(0.72 0.72)" style="">
	<g style="stroke: none; stroke-width: 0; stroke-dasharray: none; stroke-linecap: butt; stroke-linejoin: miter; stroke-miterlimit: 10; fill: none; fill-rule: nonzero; opacity: 1;" transform="translate(-175.05 -175.05000000000004) scale(3.89 3.89)" >
	<path d="M 78.678 8.328 H 27.979 c -6.243 0 -11.322 5.08 -11.322 11.323 v 16.137 L 0.541 44.111 C 0.209 44.283 0 44.626 0 45 s 0.209 0.717 0.542 0.889 l 16.116 8.323 v 16.136 c 0 6.243 5.079 11.322 11.322 11.322 h 50.698 C 84.921 81.67 90 76.591 90 70.348 V 19.651 C 90 13.408 84.921 8.329 78.678 8.328 z M 57.61 65.39 c -0.07 0.32 -0.16 0.641 -0.29 0.94 c -0.12 0.3 -0.28 0.59 -0.46 0.859 c -0.18 0.271 -0.39 0.53 -0.62 0.761 c -0.93 0.93 -2.22 1.47 -3.54 1.47 c -0.32 0 -0.65 -0.04 -0.97 -0.101 c -0.32 -0.069 -0.64 -0.159 -0.94 -0.289 c -0.3 -0.12 -0.59 -0.28 -0.86 -0.461 c -0.28 -0.18 -0.53 -0.39 -0.76 -0.619 c -0.23 -0.23 -0.44 -0.49 -0.62 -0.761 c -0.18 -0.27 -0.34 -0.56 -0.46 -0.859 c -0.13 -0.3 -0.22 -0.62 -0.29 -0.94 c -0.06 -0.32 -0.1 -0.649 -0.1 -0.979 c 0 -0.32 0.04 -0.65 0.1 -0.971 c 0.07 -0.319 0.16 -0.64 0.29 -0.939 c 0.12 -0.3 0.28 -0.59 0.46 -0.86 s 0.39 -0.53 0.62 -0.76 c 0.23 -0.23 0.48 -0.44 0.76 -0.62 c 0.27 -0.18 0.56 -0.34 0.86 -0.46 c 0.3 -0.13 0.62 -0.22 0.94 -0.29 c 1.62 -0.33 3.35 0.21 4.51 1.37 c 0.23 0.229 0.44 0.49 0.62 0.76 c 0.18 0.271 0.34 0.561 0.46 0.86 c 0.13 0.3 0.22 0.62 0.29 0.939 c 0.06 0.32 0.1 0.65 0.1 0.971 C 57.71 64.74 57.67 65.069 57.61 65.39 z M 62.532 44.239 c -0.04 0.041 -0.08 0.08 -0.122 0.119 l -5.707 5.387 v 2.614 c 0 2.209 -1.791 4 -4 4 s -4 -1.791 -4 -4 V 48.02 c 0 -1.101 0.454 -2.153 1.254 -2.909 l 6.891 -6.505 c 1.011 -1.065 1.567 -2.458 1.567 -3.93 v -0.258 c 0 -1.554 -0.613 -3.006 -1.726 -4.091 c -1.113 -1.084 -2.591 -1.641 -4.14 -1.619 c -3.064 0.079 -5.558 2.739 -5.558 5.929 c 0 2.209 -1.791 4 -4 4 c -2.209 0 -4 -1.791 -4 -4 c 0 -7.489 5.99 -13.736 13.352 -13.926 c 3.729 -0.098 7.259 1.284 9.929 3.887 c 2.671 2.604 4.142 6.091 4.142 9.82 v 0.259 h 0.002 C 66.416 38.269 65.037 41.664 62.532 44.239 z" style="stroke: none; stroke-width: 1; stroke-dasharray: none; stroke-linecap: butt; stroke-linejoin: miter; stroke-miterlimit: 10; fill: rgb(0,0,0); fill-rule: nonzero; opacity: 1;" transform=" matrix(1 0 0 1 0 0) " stroke-linecap="round" />
</g>
</g>
</svg>