<svg xmlns="http://www.w3.org/2000/svg" xmlns:xlink="http://www.w3.org/1999/xlink" version="1.1" width="256" height="256" viewBox="0 0 256 256" xml:space="preserve">
<desc>Created with Fabric.js 1.7.22</desc>
<defs>
</defs>
<g transform="translate(128 128) scale(0.72 0.72)" style="">
	<g style="stroke: none; stroke-width: 0; stroke-dasharray: none; stroke-linecap: butt; stroke-linejoin: miter; stroke-miterlimit: 10; fill: none; fill-rule: nonzero; opacity: 1;" transform="translate(-175.05 -175.05000000000004) scale(3.89 3.89)" >
	<path d="M 45 60.986 c -1.104 0 -2 -0.896 -2 -2 v -5.133 c 0 -0.551 0.227 -1.076 0.627 -1.454 l 9.208 -8.694 c 1.921 -1.977 3.013 -4.663 3.013 -7.504 v -0.342 c 0 -2.95 -1.164 -5.709 -3.277 -7.769 c -2.112 -2.06 -4.901 -3.161 -7.858 -3.075 c -5.822 0.15 -10.56 5.144 -10.56 11.133 c 0 1.104 -0.896 2 -2 2 s -2 -0.896 -2 -2 c 0 -8.138 6.485 -14.926 14.457 -15.132 c 4.047 -0.102 7.862 1.391 10.753 4.209 c 2.893 2.819 4.485 6.595 4.485 10.633 V 36.2 c 0 3.889 -1.494 7.566 -4.206 10.353 L 47 54.716 v 4.271 C 47 60.091 46.104 60.986 45 60.986 z" style="stroke: none; stroke-width: 1; stroke-dasharray: none; stroke-linecap: butt; stroke-linejoin: miter; stroke-miterlimit: 10; fill: rgb(0,0,0); fill-rule: nonzero; opacity: 1;" transform=" matrix(1 0 0 1 0 0) " stroke-linecap="round" />
	<path d="M 45 69.99 c -0.2 0 -0.39 -0.021 -0.59 -0.061 c -0.19 -0.04 -0.38 -0.1 -0.56 -0.17 c -0.18 -0.08 -0.35 -0.17 -0.52 -0.28 c -0.16 -0.109 -0.31 -0.229 -0.45 -0.37 C 42.32 68.55 42 67.78 42 66.99 s 0.32 -1.561 0.88 -2.12 c 1.12 -1.12 3.12 -1.12 4.24 0 c 0.14 0.13 0.27 0.29 0.37 0.449 c 0.109 0.16 0.199 0.341 0.279 0.521 s 0.13 0.37 0.17 0.56 C 47.979 66.6 48 66.79 48 66.99 c 0 0.79 -0.32 1.56 -0.88 2.119 C 46.56 69.67 45.79 69.99 45 69.99 z" style="stroke: none; stroke-width: 1; stroke-dasharray: none; stroke-linecap: butt; stroke-linejoin: miter; stroke-miterlimit: 10; fill: rgb(0,0,0); fill-rule: nonzero; opacity: 1;" transform=" matrix(1 0 0 1 0 0) " stroke-linecap="round" />
	<path d="M 2 90 c -0.521 0 -1.032 -0.203 -1.415 -0.586 c -0.575 -0.574 -0.745 -1.439 -0.43 -2.188 L 7.469 69.82 C 2.579 62.442 0 53.886 0 45 C 0 20.187 20.187 0 45 0 s 45 20.187 45 45 S 69.813 90 45 90 c -8.886 0 -17.443 -2.579 -24.819 -7.471 L 2.775 89.844 C 2.524 89.949 2.261 90 2 90 z M 20.408 78.265 c 0.404 0 0.804 0.122 1.146 0.36 C 28.458 83.45 36.566 86 45 86 c 22.607 0 41 -18.393 41 -41 S 67.607 4 45 4 S 4 22.393 4 45 c 0 8.434 2.55 16.542 7.375 23.447 c 0.393 0.563 0.47 1.287 0.204 1.92 L 5.742 84.258 l 13.891 -5.837 C 19.882 78.316 20.146 78.265 20.408 78.265 z" style="stroke: none; stroke-width: 1; stroke-dasharray: none; stroke-linecap: butt; stroke-linejoin: miter; stroke-miterlimit: 10; fill: rgb(0,0,0); fill-rule: nonzero; opacity: 1;" transform=" matrix(1 0 0 1 0 0) " stroke-linecap="round" />
</g>
</g>
</svg>